<svg xmlns="http://www.w3.org/2000/svg" fill="none" viewBox="0 0 506 574"><g clip-path="url(#clip0_3119_2700)"><g filter="url(#filter0_d_3119_2700)"><g clip-path="url(#clip1_3119_2700)"><path fill="#fff" d="M0 0h602v428.089H0z"/><path fill="url(#paint0_linear_3119_2700)" d="M0 0h133.778v428.089H0z"/><mask id="mask0_3119_2700" width="134" height="429" x="0" y="0" maskUnits="userSpaceOnUse" style="mask-type:alpha"><path fill="#F4F4F5" d="M0 0h133.778v428.089H0z"/></mask><g mask="url(#mask0_3119_2700)"><rect width="27" height="2" x="13" y="63" fill="#737373" rx="1"/><rect width="48" height="2" x="13" y="81" fill="#737373" rx="1"/><rect width="70" height="2" x="13" y="99" fill="#737373" rx="1"/><rect width="33" height="2" x="13" y="117" fill="#737373" rx="1"/><rect width="49" height="2" x="13" y="135" fill="#737373" rx="1"/><rect width="27" height="2" x="13" y="153" fill="#737373" rx="1"/><rect width="31" height="2" x="13" y="171" fill="#737373" rx="1"/><rect width="43" height="2" x="13" y="189" fill="#737373" rx="1"/><rect width="27" height="2" x="13" y="207" fill="#737373" rx="1"/><rect width="27" height="2" x="13" y="225" fill="#737373" rx="1"/><rect width="56" height="2" x="13" y="243" fill="#737373" rx="1"/></g><g filter="url(#filter1_f_3119_2700)" opacity=".2"><circle cx="348.241" cy="442.721" r="107.858" fill="#F9332B"/></g><rect width="129" height="5" x="159" y="68" fill="#737373" rx="2.5"/><rect width="129" height="5" x="159" y="120" fill="#737373" rx="2.5"/><rect width="190" height="2" x="159" y="88" fill="#A1A1AA" opacity=".3" rx="1"/><rect width="39" height="2" x="354" y="88" fill="#FF2D20" rx="1"/><path fill="#fff" d="M415 28h43v13h-43z"/><rect width="40" height="2" x="422" y="34" fill="#A1A1AA" opacity=".3" rx="1"/><rect width="269" height="2" x="160" y="137" fill="#A1A1AA" opacity=".3" rx="1"/><rect width="229" height="2" x="160" y="147" fill="#A1A1AA" opacity=".3" rx="1"/><rect width="250" height="2" x="160" y="157" fill="#A1A1AA" opacity=".3" rx="1"/><rect width="241" height="2" x="160" y="167" fill="#A1A1AA" opacity=".3" rx="1"/><rect width="255" height="2" x="160" y="177" fill="#A1A1AA" opacity=".3" rx="1"/><rect width="133" height="2" x="160" y="187" fill="#A1A1AA" opacity=".3" rx="1"/><path stroke="#D4D4D4" stroke-width=".5" d="M159 43.75h328"/><path stroke="#52525B" stroke-linecap="round" stroke-linejoin="round" stroke-width=".5" d="m162.858 34.316 1.226 1.226m-1.226-1.226a2.26 2.26 0 1 1-3.196-3.196 2.26 2.26 0 0 1 3.196 3.196Z"/><path fill="#737373" d="M172.531 35.075a2.51 2.51 0 0 1-.646-.075 1.753 1.753 0 0 1-.489-.22 1.542 1.542 0 0 1-.339-.313 1.258 1.258 0 0 1-.194-.37l.508-.176a1 1 0 0 0 .376.483c.192.134.426.2.702.2.339 0 .604-.066.797-.2a.62.62 0 0 0 .288-.533.586.586 0 0 0-.257-.495 1.878 1.878 0 0 0-.677-.301l-.483-.126a2.167 2.167 0 0 1-.546-.219 1.27 1.27 0 0 1-.395-.376 1.025 1.025 0 0 1-.144-.552c0-.397.128-.707.383-.928.259-.226.631-.339 1.116-.339.288 0 .537.048.746.144.209.092.378.212.508.358.134.142.228.297.282.464l-.501.175a.969.969 0 0 0-.402-.489 1.235 1.235 0 0 0-.683-.181c-.28 0-.504.069-.671.206a.676.676 0 0 0-.245.552c0 .2.065.356.195.464.129.105.298.182.507.232l.483.12c.427.1.753.267.979.501.229.23.344.479.344.746 0 .23-.058.441-.175.634a1.234 1.234 0 0 1-.521.451c-.225.109-.508.163-.846.163Zm3.676 0c-.305 0-.575-.069-.809-.207a1.514 1.514 0 0 1-.552-.583 1.814 1.814 0 0 1-.194-.853c0-.322.065-.606.194-.852a1.483 1.483 0 0 1 1.349-.79c.292 0 .545.073.758.219.214.142.379.343.496.602.117.259.175.564.175.915h-2.589l.125-.106c0 .25.044.466.132.646a.99.99 0 0 0 .382.413c.163.093.349.139.558.139a.953.953 0 0 0 .558-.157c.155-.105.274-.243.358-.414l.432.22a1.396 1.396 0 0 1-.319.426 1.38 1.38 0 0 1-.464.282c-.176.067-.372.1-.59.1Zm-1.016-1.869-.131-.1h2.163l-.132.107c0-.2-.039-.374-.119-.52a.858.858 0 0 0-.32-.34.889.889 0 0 0-.464-.118c-.171 0-.334.04-.489.119a.993.993 0 0 0-.37.338.926.926 0 0 0-.138.514ZM180.188 35l-.025-.514v-1.142c0-.246-.027-.449-.081-.608a.714.714 0 0 0-.257-.37.771.771 0 0 0-.458-.125.888.888 0 0 0-.445.106.764.764 0 0 0-.301.326l-.452-.175c.08-.146.176-.272.289-.376a1.1 1.1 0 0 1 .395-.245 1.41 1.41 0 0 1 .514-.088c.293 0 .533.059.721.176.192.113.337.282.433.508.096.221.142.497.138.828L180.653 35h-.465Zm-.94.075c-.368 0-.656-.083-.866-.25-.204-.172-.307-.408-.307-.71 0-.317.105-.56.314-.727.213-.171.51-.257.89-.257h.897v.42h-.784c-.293 0-.502.048-.627.145a.498.498 0 0 0-.182.413.47.47 0 0 0 .182.39c.121.091.291.137.508.137.18 0 .336-.037.47-.113a.793.793 0 0 0 .308-.332c.075-.146.112-.318.112-.514h.214c0 .426-.097.767-.289 1.022-.192.25-.472.376-.84.376Zm2.482-1.774c0-.339.064-.613.194-.822.13-.213.295-.37.495-.47.205-.105.421-.157.646-.157v.47c-.184 0-.361.032-.533.094a.894.894 0 0 0-.414.295c-.108.138-.163.326-.163.565l-.225.025ZM181.454 35v-3.135h.501V35h-.501Zm3.517.075c-.309 0-.583-.069-.821-.207a1.496 1.496 0 0 1-.559-.583c-.133-.246-.2-.53-.2-.853 0-.322.065-.606.194-.852.134-.247.32-.44.558-.578.239-.142.51-.213.815-.213.301 0 .571.07.809.207.239.138.421.333.546.584l-.458.206a.905.905 0 0 0-.364-.388 1.029 1.029 0 0 0-.545-.145 1 1 0 0 0-.546.15c-.154.101-.278.241-.37.421a1.353 1.353 0 0 0-.131.608c0 .23.044.435.131.615.092.175.218.313.377.414.163.1.347.15.551.15a.982.982 0 0 0 .916-.596l.458.207a1.458 1.458 0 0 1-.546.627c-.238.151-.51.226-.815.226Zm1.994-.075v-4.39h.502V35h-.502Zm2.208 0v-1.605h.501V35h-.501Zm0-1.605c0-.31-.038-.546-.113-.709a.617.617 0 0 0-.295-.332.94.94 0 0 0-.426-.094c-.276 0-.492.098-.646.294-.151.193-.226.466-.226.822h-.245c0-.33.048-.615.145-.853a1.2 1.2 0 0 1 .426-.546 1.15 1.15 0 0 1 .665-.188c.242 0 .455.05.639.15a.97.97 0 0 1 .427.465c.104.213.154.493.15.84v.15h-.501ZM423.54 28l1.43-3.5h.445l-1.45 3.5h-.425Zm-.045 0-1.45-3.5h.445l1.425 3.5h-.42Zm2.437 0v-3.5h2.07v.385h-1.645v1.13h1.5v.38h-1.5v1.22h1.655V28h-2.08Zm2.959 0v-3.5h1.14c.226 0 .426.045.6.135a1.016 1.016 0 0 1 .56.925c0 .207-.054.39-.16.55-.107.16-.252.287-.435.38a1.39 1.39 0 0 1-.62.135h-.66V28h-.425Zm1.975 0-.84-1.435.335-.22.97 1.655h-.465Zm-1.55-1.765h.775c.126 0 .24-.028.34-.085a.69.69 0 0 0 .335-.59c0-.2-.07-.362-.21-.485a.756.756 0 0 0-.535-.19h-.705v1.35Zm3.825 1.825c-.194 0-.365-.02-.515-.06a1.227 1.227 0 0 1-.66-.425.996.996 0 0 1-.155-.295l.405-.14a.8.8 0 0 0 .3.385c.153.107.34.16.56.16.27 0 .481-.053.635-.16a.495.495 0 0 0 .23-.425.469.469 0 0 0-.205-.395 1.508 1.508 0 0 0-.54-.24l-.385-.1a1.712 1.712 0 0 1-.435-.175c-.13-.08-.235-.18-.315-.3a.814.814 0 0 1-.115-.44c0-.317.101-.563.305-.74.206-.18.503-.27.89-.27.23 0 .428.038.595.115.166.073.301.168.405.285a.998.998 0 0 1 .225.37l-.4.14a.772.772 0 0 0-.32-.39.985.985 0 0 0-.545-.145c-.224 0-.402.055-.535.165a.538.538 0 0 0-.195.44c0 .16.051.283.155.37.103.083.238.145.405.185l.385.095c.34.08.6.213.78.4.183.183.275.382.275.595a.956.956 0 0 1-.14.505.989.989 0 0 1-.415.36c-.18.087-.405.13-.675.13Zm1.951-.06v-3.5h.425V28h-.425Zm2.847.06a1.73 1.73 0 0 1-.895-.23 1.614 1.614 0 0 1-.61-.64 1.965 1.965 0 0 1-.22-.94c0-.357.072-.67.215-.94a1.63 1.63 0 0 1 .605-.64c.257-.153.554-.23.89-.23.337 0 .634.078.89.235.26.153.462.367.605.64.144.27.215.582.215.935 0 .353-.071.667-.215.94a1.583 1.583 0 0 1-.6.64c-.253.153-.546.23-.88.23Zm0-.385c.25 0 .47-.06.66-.18.19-.123.339-.292.445-.505.11-.213.165-.46.165-.74 0-.277-.055-.522-.165-.735a1.235 1.235 0 0 0-.455-.505 1.193 1.193 0 0 0-.665-.185c-.25 0-.471.062-.665.185-.193.12-.345.288-.455.505-.11.213-.165.458-.165.735 0 .28.055.527.165.74.11.213.264.382.46.505.197.12.422.18.675.18Zm2.392.325v-3.5h.43l2.085 2.81V24.5h.425V28h-.425l-2.09-2.825V28h-.425Z"/><g clip-path="url(#clip4_3119_2700)"><path fill="#737373" d="M475.501 30.583a2.921 2.921 0 0 0-2.063.855 2.916 2.916 0 1 0 2.063-.855Zm0 .584a2.336 2.336 0 0 1 2.333 2.333 2.336 2.336 0 0 1-2.333 2.333v-4.666Z"/></g></g></g><g filter="url(#filter2_f_3119_2700)"><path fill="#fff" d="M-73 201s183 84.669 374 84.669S675 201 675 201v373H-73V201Z"/></g></g><defs><clipPath id="clip0_3119_2700"><path fill="#fff" d="M0 0h506v574H0z"/></clipPath><clipPath id="clip1_3119_2700"><path fill="#fff" d="M0 0h602v428.089H0z"/></clipPath><clipPath id="clip2_3119_2700"><path fill="#fff" d="M13.377 13.378H34.28v21.739H13.377z"/></clipPath><clipPath id="clip3_3119_2700"><path fill="#fff" d="M40 18h50v13H40z"/></clipPath><clipPath id="clip4_3119_2700"><path fill="#fff" d="M472 30h7v7h-7z"/></clipPath><filter id="filter0_d_3119_2700" width="670" height="496.089" x="-34" y="-30" color-interpolation-filters="sRGB" filterUnits="userSpaceOnUse"><feFlood flood-opacity="0" result="BackgroundImageFix"/><feColorMatrix in="SourceAlpha" result="hardAlpha" values="0 0 0 0 0 0 0 0 0 0 0 0 0 0 0 0 0 0 127 0"/><feOffset dy="4"/><feGaussianBlur stdDeviation="17"/><feComposite in2="hardAlpha" operator="out"/><feColorMatrix values="0 0 0 0 0 0 0 0 0 0 0 0 0 0 0 0 0 0 0.06 0"/><feBlend in2="BackgroundImageFix" result="effect1_dropShadow_3119_2700"/><feBlend in="SourceGraphic" in2="effect1_dropShadow_3119_2700" result="shape"/></filter><filter id="filter1_f_3119_2700" width="386.283" height="386.283" x="155.099" y="249.579" color-interpolation-filters="sRGB" filterUnits="userSpaceOnUse"><feFlood flood-opacity="0" result="BackgroundImageFix"/><feBlend in="SourceGraphic" in2="BackgroundImageFix" result="shape"/><feGaussianBlur result="effect1_foregroundBlur_3119_2700" stdDeviation="42.642"/></filter><filter id="filter2_f_3119_2700" width="896" height="521" x="-147" y="127" color-interpolation-filters="sRGB" filterUnits="userSpaceOnUse"><feFlood flood-opacity="0" result="BackgroundImageFix"/><feBlend in="SourceGraphic" in2="BackgroundImageFix" result="shape"/><feGaussianBlur result="effect1_foregroundBlur_3119_2700" stdDeviation="37"/></filter><linearGradient id="paint0_linear_3119_2700" x1="66.889" x2="66.889" y1="0" y2="428.089" gradientUnits="userSpaceOnUse"><stop stop-color="#F4F4F5"/><stop offset="1" stop-color="#fff"/></linearGradient></defs></svg>