<svg xmlns="http://www.w3.org/2000/svg" version="1.1" xlink="http://www.w3.org/1999/xlink" xmlns:svgjs="http://svgjs.com/svgjs" width="100%" height="100%" preserveAspectRatio="xMidYMid meet" viewBox="-5.960464477539063e-8 8.940696716308594e-8 300.0036926269531 51.20643615722656" overflow="visible">
   <defs></defs>
   <g transform="scale(0.6493506493506493)" opacity="1">
      <g class="3pRQrHgNH" transform="translate(-0.5616425708035767, -0.7457652543440942) scale(0.8034943788320147)" light-content="false" non-strokable="false" fill="#ef8a07">
         <path d="M47 1.732l37.301 21.536a6 6 0 0 1 3 5.196v43.072a6 6 0 0 1-3 5.196L47 98.268a6 6 0 0 1-6 0L3.699 76.732a6 6 0 0 1-3-5.196V28.464a6 6 0 0 1 3-5.196L41 1.732a6 6 0 0 1 6 0z"></path>
      </g>
      <g class="Rf2--C6XUI" transform="translate(9.732819532126396, 14.394697377887358) scale(0.5006851261873861)" light-content="true" non-strokable="false" fill="#efd8ba">
         <path d="M19.4 63.1H25c.3 0 .5-.2.5-.5V31.7c0-3.4 2.8-6.2 6.2-6.2h30.9c.3 0 .5-.2.5-.5v-5.6c0-4-3.2-7.2-7.2-7.2H19.4c-4 0-7.2 3.2-7.2 7.2V56c0 3.9 3.2 7.1 7.2 7.1zM36.9 75v5.6c0 4 3.2 7.2 7.2 7.2h36.6c4 0 7.2-3.2 7.2-7.2V44c0-4-3.2-7.2-7.2-7.2H75c-.3 0-.5.2-.5.5v30.9c0 3.4-2.8 6.2-6.2 6.2H37.4c-.3.1-.5.3-.5.6z"></path>
         <path d="M37.4 63.1H56c4 0 7.2-3.2 7.2-7.2V37.4c0-.3-.2-.5-.5-.5H44c-4 0-7.2 3.2-7.2 7.2v18.6c.1.2.3.4.6.4z"></path>
      </g>
      <g class="text" transform="translate(200.3791948296519, 59.40304030847714) scale(1)" light-content="false" fill="#ef8a07">
         <path d="M-69.94 -11.5C-69.94 -13.16 -70.19 -14.63 -70.7 -15.9C-71.21 -17.18 -71.95 -18.27 -72.91 -19.19C-73.87 -20.11 -75.18 -20.91 -76.83 -21.6C-78.49 -22.29 -81.23 -23.04 -85.06 -23.85C-88.29 -24.55 -90.43 -25.13 -91.49 -25.59C-92.55 -26.05 -93.35 -26.62 -93.89 -27.28C-94.42 -27.94 -94.69 -28.79 -94.69 -29.83C-94.69 -33 -92.16 -34.59 -87.1 -34.59C-84.72 -34.59 -82.9 -34.15 -81.62 -33.28C-80.35 -32.41 -79.5 -31.12 -79.09 -29.4L-70.98 -30.51C-71.7 -34.08 -73.3 -36.63 -75.79 -38.18C-78.27 -39.73 -81.98 -40.51 -86.93 -40.51C-92.11 -40.51 -96.05 -39.55 -98.76 -37.63C-101.47 -35.71 -102.82 -32.95 -102.82 -29.35C-102.82 -27.93 -102.64 -26.67 -102.27 -25.58C-101.9 -24.48 -101.39 -23.53 -100.73 -22.72C-100.07 -21.91 -99.26 -21.21 -98.32 -20.64C-97.37 -20.06 -96.32 -19.56 -95.15 -19.13C-93.98 -18.71 -91.9 -18.15 -88.91 -17.45C-85.46 -16.75 -83.12 -16.16 -81.9 -15.66C-80.69 -15.17 -79.74 -14.56 -79.07 -13.82C-78.4 -13.09 -78.07 -12.15 -78.07 -11.02C-78.07 -7.47 -80.98 -5.69 -86.82 -5.69C-89.63 -5.69 -91.83 -6.17 -93.42 -7.12C-95 -8.08 -96.07 -9.61 -96.62 -11.73L-104.69 -10.4C-103.86 -6.71 -101.99 -3.97 -99.08 -2.15C-96.18 -0.34 -92.16 0.57 -87.04 0.57C-81.44 0.57 -77.18 -0.47 -74.28 -2.54C-71.39 -4.6 -69.94 -7.59 -69.94 -11.5Z M-30.96 -27.28C-30.96 -31.3 -32.25 -34.41 -34.83 -36.61C-37.4 -38.81 -41.08 -39.91 -45.86 -39.91L-63.79 -39.91L-63.79 0L-55.43 0L-55.43 -14.05L-45.52 -14.05C-42.52 -14.05 -39.93 -14.6 -37.74 -15.71C-35.56 -16.81 -33.89 -18.37 -32.72 -20.39C-31.55 -22.42 -30.96 -24.71 -30.96 -27.28ZM-39.37 -27.14C-39.37 -24.98 -40 -23.34 -41.24 -22.19C-42.49 -21.05 -44.26 -20.48 -46.57 -20.48L-55.43 -20.48L-55.43 -33.42L-46.79 -33.42C-41.85 -33.42 -39.37 -31.33 -39.37 -27.14Z M2.32 0L11.73 0L0.93 -16.77C3.64 -17.41 5.78 -18.75 7.36 -20.78C8.95 -22.81 9.74 -25.22 9.74 -28.01C9.74 -31.85 8.45 -34.79 5.86 -36.84C3.28 -38.89 -0.4 -39.91 -5.16 -39.91L-25.1 -39.91L-25.1 0L-16.74 0L-16.74 -15.15L-6.94 -15.15ZM1.33 -27.67C1.33 -25.77 0.73 -24.28 -0.48 -23.23C-1.69 -22.17 -3.47 -21.64 -5.81 -21.64L-16.74 -21.64L-16.74 -33.42L-6.03 -33.42C-1.12 -33.42 1.33 -31.51 1.33 -27.67Z M16.8 0L25.15 0L25.15 -39.91L16.8 -39.91Z M57.22 0L67.02 0L67.02 -39.91L59.6 -39.91L59.6 -16.71C59.6 -14.37 59.77 -11.77 60.11 -8.92L42.46 -39.91L32.91 -39.91L32.91 0L40.34 0L40.34 -23.54C40.34 -25.35 40.17 -27.75 39.83 -30.73Z M92.82 -33.45L105.74 -33.45L105.74 -39.91L71.58 -39.91L71.58 -33.45L84.47 -33.45L84.47 0L92.82 0Z"></path>
      </g>
      <g class="text" transform="translate(385.975677750189, 59.40304030847714) scale(1)" light-content="false" fill="#ef8a07">
         <path d="M-46.71 0L-40.19 0L-40.19 -39.91L-45.07 -39.91L-45.07 -13.74C-45.07 -12.08 -44.95 -9.39 -44.73 -5.69L-66.31 -39.91L-72.6 -39.91L-72.6 0L-67.78 0L-67.78 -26.51L-67.93 -31.24L-68.07 -33.99Z M-30.71 0L0.74 0L0.74 -4.42L-25.29 -4.42L-25.29 -18.33L-2.12 -18.33L-2.12 -22.69L-25.29 -22.69L-25.29 -35.49L-0.42 -35.49L-0.42 -39.91L-30.71 -39.91Z M39.26 -11.02C39.26 -12.47 39.06 -13.74 38.65 -14.81C38.24 -15.89 37.68 -16.83 36.97 -17.62C36.25 -18.41 35.4 -19.08 34.43 -19.63C33.46 -20.18 32.41 -20.65 31.3 -21.06C30.19 -21.47 29.02 -21.82 27.8 -22.11C26.58 -22.4 25.36 -22.69 24.13 -22.97C20.47 -23.78 18.02 -24.47 16.8 -25.03C15.57 -25.58 14.63 -26.26 13.98 -27.07C13.33 -27.87 13 -28.88 13 -30.11C13 -32.21 13.84 -33.78 15.52 -34.84C17.2 -35.9 19.64 -36.43 22.83 -36.43C25.74 -36.43 28.01 -35.95 29.66 -35C31.3 -34.04 32.41 -32.51 33 -30.39L38.32 -31.33C37.36 -34.67 35.68 -37.04 33.28 -38.42C30.88 -39.81 27.42 -40.51 22.89 -40.51C18.02 -40.51 14.27 -39.58 11.66 -37.73C9.04 -35.88 7.73 -33.24 7.73 -29.83C7.73 -28.34 7.98 -27.01 8.48 -25.86C8.98 -24.71 9.71 -23.7 10.65 -22.84C11.59 -21.99 12.88 -21.21 14.52 -20.51C16.15 -19.81 18.54 -19.11 21.7 -18.41C23.51 -18 25.16 -17.61 26.65 -17.25C28.15 -16.89 29.43 -16.45 30.51 -15.92C31.58 -15.39 32.42 -14.72 33.01 -13.91C33.61 -13.1 33.91 -12.04 33.91 -10.74C33.91 -8.41 32.96 -6.65 31.06 -5.45C29.16 -4.25 26.47 -3.65 22.97 -3.65C19.59 -3.65 16.92 -4.22 14.96 -5.34C12.99 -6.46 11.71 -8.22 11.1 -10.62L5.86 -9.57C7.41 -2.81 13.05 0.57 22.77 0.57C28 0.57 32.06 -0.44 34.94 -2.46C37.82 -4.48 39.26 -7.34 39.26 -11.02Z M62.32 -35.49L76.03 -35.49L76.03 -39.91L43.23 -39.91L43.23 -35.49L56.93 -35.49L56.93 0L62.32 0Z"></path>
      </g>
   </g>
</svg>
